<?xml version="1.0" encoding="UTF-8" standalone="no"?>
<svg
   xmlns:dc="http://purl.org/dc/elements/1.1/"
   xmlns:cc="http://creativecommons.org/ns#"
   xmlns:rdf="http://www.w3.org/1999/02/22-rdf-syntax-ns#"
   xmlns:svg="http://www.w3.org/2000/svg"
   xmlns="http://www.w3.org/2000/svg"
   viewBox="0 0 1839.88 550.28534"
   height="550.28534"
   width="1839.88"
   xml:space="preserve"
   id="svg2"
   version="1.1"><metadata
     id="metadata8"><rdf:RDF><cc:Work
         rdf:about=""><dc:format>image/svg+xml</dc:format><dc:type
           rdf:resource="http://purl.org/dc/dcmitype/StillImage" /></cc:Work></rdf:RDF></metadata><defs
     id="defs6"><clipPath
       id="clipPath18"
       clipPathUnits="userSpaceOnUse"><path
         id="path16"
         d="M 0,412.714 H 1379.911 V 0 H 0 Z" /></clipPath><linearGradient
       id="linearGradient40"
       spreadMethod="pad"
       gradientTransform="matrix(129.15182,0,0,-129.15182,110.3973,250.71428)"
       gradientUnits="userSpaceOnUse"
       y2="0"
       x2="1"
       y1="0"
       x1="0"><stop
         id="stop36"
         offset="0"
         style="stop-opacity:1;stop-color:#ec5b27" /><stop
         id="stop38"
         offset="1"
         style="stop-opacity:1;stop-color:#f9b03d" /></linearGradient><clipPath
       id="clipPath50"
       clipPathUnits="userSpaceOnUse"><path
         id="path48"
         d="M 0,412.714 H 1379.911 V 0 H 0 Z" /></clipPath><linearGradient
       id="linearGradient58"
       spreadMethod="pad"
       gradientTransform="matrix(17.1007,0,0,17.1007,0,426.0809)"
       gradientUnits="userSpaceOnUse"
       y2="0"
       x2="1"
       y1="0"
       x1="0"><stop
         id="stop54"
         offset="0"
         style="stop-opacity:1;stop-color:#ec5b27" /><stop
         id="stop56"
         offset="1"
         style="stop-opacity:1;stop-color:#f9b03d" /></linearGradient><linearGradient
       id="linearGradient78"
       spreadMethod="pad"
       gradientTransform="matrix(214.9343,0,0,-214.9343,68.45536,205.07104)"
       gradientUnits="userSpaceOnUse"
       y2="0"
       x2="1"
       y1="0"
       x1="0"><stop
         id="stop74"
         offset="0"
         style="stop-opacity:1;stop-color:#ec5b27" /><stop
         id="stop76"
         offset="1"
         style="stop-opacity:1;stop-color:#f9b03d" /></linearGradient></defs><g
     transform="matrix(1.3333333,0,0,-1.3333333,0,550.28533)"
     id="g10"><g
       id="g12"><g
         clip-path="url(#clipPath18)"
         id="g14"><g
           transform="translate(1013.8125,293.8391)"
           id="g20"><path
             id="path22"
             style="fill:#55585b;fill-opacity:1;fill-rule:nonzero;stroke:none"
             d="M 0,0 H -63.429 V -96.857 H 5 C 62.714,-96.857 65.571,0 0,0 m -196.714,0 h -63.429 v -96.857 h 68.429 c 57.714,0 60.571,96.857 -5,96.857 M 112.5,-121.929 h 92.571 L 158.786,-12.75 Z M -435.214,-12.75 -481.5,-121.929 h 91.607 z m 322.071,10.607 V 40.929 H 7.393 c 0,0 87.75,0 87.75,-88.393 l 37.607,88.393 h 54 L 297.643,-217.179 H 244.607 L 220.5,-164.143 H 95.211 L 72,-217.179 H 19.929 l 41.464,95.25 C 34.87,-142.649 0.643,-141 0.643,-141 h -62.679 v -76.179 h -51.107 v 122.465 c -13.714,-42.215 -73.286,-45.321 -73.286,-45.321 h -74.25 v -77.144 h -88.714 l -24.107,55.929 h -123.429 l -24.107,-55.929 H -697.5 V 40.929 h 51.429 V -173.143 H -553.5 L -459,40.929 h 52.071 l 97.786,-226.286 V 40.929 h 122.714 c 0,0 54.858,-1.5 73.286,-43.072" /></g></g></g><g
       id="g24"><g
         id="g26"><g
           id="g32"><g
             id="g34"><path
               id="path42"
               style="fill:url(#linearGradient40);stroke:none"
               d="m 159.169,336.054 c -0.552,0 -0.999,-0.449 -0.999,-1 v 0 -42.736 c -27.517,-7.395 -47.772,-32.516 -47.772,-62.367 v 0 c 0,-35.978 29.421,-65.084 65.517,-64.569 v 0 c 34.549,0.492 62.905,28.655 63.62,63.199 v 0 c 0.625,30.164 -19.439,55.744 -46.973,63.521 v 0 42.952 c 0,0.551 -0.447,1 -1,1 v 0 z M 131.65,230.608 c 0,24.143 19.573,43.716 43.716,43.716 v 0 c 24.144,0 43.716,-19.573 43.716,-43.716 v 0 c 0,-24.144 -19.572,-43.715 -43.716,-43.715 v 0 c -24.143,0 -43.716,19.571 -43.716,43.715" /></g></g></g></g><g
       id="g44"><g
         clip-path="url(#clipPath50)"
         id="g46"><g
           transform="translate(187.522,254.4959)"
           id="g52"><path
             id="path60"
             style="fill:none;stroke:url(#linearGradient58);stroke-width:8;stroke-linecap:round;stroke-linejoin:round;stroke-miterlimit:10;stroke-dasharray:none;stroke-opacity:1"
             d="M 0,0 C 0,0 17.101,-7.77 17.101,-26.734" /></g></g></g><g
       id="g62"><g
         id="g64"><g
           id="g70"><g
             id="g72"><path
               id="path80"
               style="fill:url(#linearGradient78);stroke:none"
               d="m 211.289,331.095 v -24.613 l -0.015,-0.034 c 28.556,-13.025 49.659,-36.915 49.213,-74.645 v 0 c -0.542,-45.95 -36.322,-84.246 -82.25,-85.763 v 0 c -47.746,-1.576 -85.434,36.635 -86.841,83.948 v 0 c -1.155,38.78 20.164,63.227 49.175,76.46 v 0 l -0.015,0.034 v 24.613 c 0,0.676 -0.661,1.164 -1.305,0.96 v 0 C 95.904,318.328 68.456,278.418 68.456,231.911 v 0 c 0,-28.785 11.285,-55.93 34.589,-80.197 v 0 c 16.756,-17.449 64.862,-66.836 71.229,-73.372 v 0 c 0.388,-0.397 1.016,-0.403 1.41,-0.011 v 0 c 6.541,6.488 56.349,55.923 73.116,73.383 v 0 c 23.304,24.267 34.589,51.412 34.589,80.197 v 0 c 0,46.507 -27.448,86.417 -70.795,100.144 v 0 c -0.1,0.032 -0.201,0.047 -0.3,0.047 v 0 c -0.534,0 -1.005,-0.437 -1.005,-1.007" /></g></g></g></g></g></svg>